<?xml version="1.0" encoding="utf-8"?>
<!-- Generator: Adobe Illustrator 27.5.0, SVG Export Plug-In . SVG Version: 6.00 Build 0)  -->
<svg version="1.1" xmlns="http://www.w3.org/2000/svg" xmlns:xlink="http://www.w3.org/1999/xlink" x="0px" y="0px"
	 viewBox="0 0 1200 800" style="enable-background:new 0 0 1200 800;" xml:space="preserve">
<g id="Background">
	
		<radialGradient id="SVGID_1_" cx="7.4448" cy="425.1512" r="1054.1337" gradientTransform="matrix(1 0 0 0.7517 0 105.5633)" gradientUnits="userSpaceOnUse">
		<stop  offset="0.287" style="stop-color:#FFFFFF"/>
		<stop  offset="0.4991" style="stop-color:#FCFEFD"/>
		<stop  offset="0.6281" style="stop-color:#F4FAF6"/>
		<stop  offset="0.7349" style="stop-color:#E6F4E9"/>
		<stop  offset="0.8295" style="stop-color:#D1EAD8"/>
		<stop  offset="0.9153" style="stop-color:#B7DEC1"/>
		<stop  offset="0.995" style="stop-color:#97D0A6"/>
		<stop  offset="1" style="stop-color:#95CFA4"/>
	</radialGradient>
	<polygon style="fill:url(#SVGID_1_);" points="0,800 0,0 1200,0 1200,800 	"/>
</g>
<g id="Graphic_Elements">
	<g>
		<defs>
			
				<rect id="SVGID_00000001633684666826575760000008089568084047689141_" x="200" y="-200" transform="matrix(6.123234e-17 -1 1 6.123234e-17 200 1000)" width="800" height="1200"/>
		</defs>
		<clipPath id="SVGID_00000078724506033973182030000002978797752122386056_">
			<use xlink:href="#SVGID_00000001633684666826575760000008089568084047689141_"  style="overflow:visible;"/>
		</clipPath>
		<g style="clip-path:url(#SVGID_00000078724506033973182030000002978797752122386056_);">
			
				<linearGradient id="SVGID_00000109015631406475172860000000463303897851604392_" gradientUnits="userSpaceOnUse" x1="1116.897" y1="47.8773" x2="-96.234" y2="552.0652">
				<stop  offset="0" style="stop-color:#3AA36C"/>
				<stop  offset="1" style="stop-color:#3AA36C;stop-opacity:0"/>
			</linearGradient>
			<path style="fill:url(#SVGID_00000109015631406475172860000000463303897851604392_);" d="M-82.576,546.472
				c-16.191-38.784-28.655-79.141-37.031-120.348c-4.15-20.608-7.47-41.395-9.685-62.314c-2.229-20.917-3.421-41.95-3.574-62.997
				c-0.085-10.523,0.105-21.051,0.55-31.569c0.4-10.52,1.064-21.032,1.98-31.525c1.836-20.986,4.706-41.892,8.594-62.618
				c7.846-41.431,19.424-82.234,35.029-121.542c7.804-19.65,16.56-38.934,26.163-57.806c9.626-18.861,20.183-37.267,31.625-55.128
				l4.342-6.666c1.447-2.223,2.882-4.455,4.404-6.627l4.503-6.562c1.495-2.193,3-4.379,4.568-6.519
				c6.142-8.658,12.485-17.181,19.046-25.54c13.12-16.72,27.077-32.81,41.81-48.187c29.459-30.755,61.929-58.776,96.976-83.309
				c35.026-24.557,72.559-45.68,111.827-63.047c78.537-34.693,164.345-54.217,251.021-55.973
				c86.647-1.85,173.948,13.843,255.01,46.024c40.517,16.101,79.572,36.119,116.175,60.03
				c36.615,23.866,71.044,51.258,102.203,82.058c15.606,15.368,30.458,31.513,44.479,48.358c3.463,4.245,7.028,8.411,10.36,12.763
				c3.355,4.332,6.821,8.583,10.042,13.017l4.895,6.605l2.429,3.316l2.357,3.368l4.711,6.738l2.35,3.373l2.272,3.425
				c24.437,36.405,45.3,75.21,62.169,115.648c16.711,40.502,29.535,82.645,38.089,125.65c8.513,43.016,12.542,86.888,12.334,130.682
				c-0.537,87.615-18.928,174.871-53.393,254.963c-34.398,80.128-84.836,153.054-147.255,213.153
				c-31.179,30.079-65.385,56.881-101.748,80.078c-36.374,23.193-74.959,42.714-114.941,58.339
				c-40,15.584-81.438,27.289-123.542,34.796c-21.051,3.757-42.266,6.47-63.54,8.127c-21.275,1.652-42.605,2.252-63.893,1.868
				c-21.289-0.402-42.536-1.858-63.639-4.35c-21.101-2.512-42.064-5.996-62.795-10.472c-41.47-8.952-81.934-22.066-120.808-38.68
				c-38.864-16.671-75.961-37.224-110.861-60.889c-17.433-11.863-34.276-24.574-50.446-38.075
				c-8.086-6.75-15.999-13.702-23.748-20.827c-7.769-7.104-15.365-14.395-22.765-21.878c-14.811-14.954-28.878-30.637-42.132-46.971
				c-13.262-16.329-25.662-33.339-37.34-50.818C-46.694,622.609-66.507,585.307-82.576,546.472z M-79.547,545.213
				c16.103,38.594,35.919,75.636,59.187,110.372c23.259,34.74,49.96,67.17,79.59,96.655
				c59.232,59.014,130.231,106.098,207.522,137.914c77.28,31.846,160.819,48.411,244.377,48.23
				c41.774-0.066,83.535-4.281,124.474-12.556c40.942-8.266,81.053-20.594,119.617-36.633
				c38.546-16.082,75.541-35.873,110.232-59.111c34.696-23.229,67.083-49.896,96.53-79.487
				c58.938-59.156,105.962-130.064,137.738-207.258c31.806-77.181,48.349-160.614,48.168-244.065
				c-0.065-41.72-4.275-83.427-12.54-124.313c-8.255-40.89-20.568-80.949-36.587-119.465c-16.018-38.515-35.711-75.506-58.874-110.2
				c-23.149-34.7-49.741-67.104-79.265-96.58c-59.02-58.996-129.825-106.125-206.965-138.027
				c-77.128-31.932-160.558-48.622-244.062-48.577c-41.747-0.003-83.494,4.141-124.433,12.346
				c-40.942,8.196-81.066,20.456-119.656,36.432c-38.572,16.019-75.604,35.752-110.345,58.94
				c-34.745,23.179-67.191,49.805-96.705,79.368C-0.617-91.703-47.807-20.807-79.749,56.432
				c-31.973,77.227-48.685,160.764-48.64,244.376c-0.003,41.801,4.146,83.602,12.363,124.594
				C-107.819,466.399-95.544,506.575-79.547,545.213z"/>
		</g>
		<g style="clip-path:url(#SVGID_00000078724506033973182030000002978797752122386056_);">
			
				<linearGradient id="SVGID_00000181074644674817150020000003754190932033545912_" gradientUnits="userSpaceOnUse" x1="1641.374" y1="448.9685" x2="1116.1309" y2="1343.1115">
				<stop  offset="0" style="stop-color:#4DC265"/>
				<stop  offset="0.0695" style="stop-color:#4DC265;stop-opacity:0.9305"/>
				<stop  offset="1" style="stop-color:#4DC265;stop-opacity:0"/>
			</linearGradient>
			<path style="fill:url(#SVGID_00000181074644674817150020000003754190932033545912_);" d="M1122.723,1332.016
				c-28.565-16.71-55.532-36.176-80.333-58.114c-12.376-10.993-24.326-22.48-35.642-34.579
				c-11.323-12.09-22.051-24.746-32.132-37.904c-5.045-6.575-9.92-13.283-14.63-20.106c-4.742-6.801-9.315-13.723-13.721-20.753
				c-8.809-14.061-16.93-28.563-24.327-43.436c-14.733-29.768-26.853-60.905-35.72-93.029
				c-8.823-32.122-14.794-65.109-17.369-98.456c-0.268-4.17-0.643-8.338-0.823-12.516c-0.167-4.177-0.446-8.355-0.519-12.538
				c-0.259-8.365-0.328-16.74-0.181-25.116c0.292-16.753,1.408-33.51,3.353-50.191c3.885-33.358,10.951-66.441,21.31-98.563
				c10.333-32.128,23.88-63.297,40.313-92.936c32.886-59.248,77.59-112.458,131.352-154.894
				c53.698-42.478,116.207-74.223,182.669-92.57c33.227-9.159,67.405-15.158,101.898-17.509
				c34.478-2.387,69.263-1.521,103.608,3.087c17.174,2.267,34.243,5.385,51.121,9.341c8.441,1.97,16.833,4.16,25.165,6.557
				c8.335,2.389,16.589,5.057,24.784,7.888c32.77,11.359,64.426,25.931,94.332,43.442c29.832,17.635,57.99,38.159,83.861,61.259
				c25.847,23.13,49.255,48.947,69.953,76.72c41.322,55.63,71.16,119.526,87.401,186.513
				c16.304,66.978,19.016,137.005,8.064,204.576c-10.907,67.597-35.577,132.541-71.304,190.104
				c-17.878,28.78-38.498,55.786-61.52,80.453c-23.001,24.69-48.457,46.959-75.682,66.61
				c-27.226,19.666-56.386,36.479-86.744,50.478c-30.377,13.982-62.086,24.851-94.437,32.785
				c-32.373,7.891-65.465,12.488-98.64,14.113c-16.591,0.783-33.212,0.752-49.782-0.095c-8.285-0.422-16.557-1.055-24.807-1.872
				c-8.253-0.792-16.486-1.783-24.686-2.988c-16.401-2.397-32.679-5.605-48.752-9.607c-16.077-3.994-31.931-8.83-47.559-14.289
				C1181.359,1362.905,1151.227,1348.829,1122.723,1332.016z M1124.174,1329.544c28.4,16.627,58.399,30.52,89.475,41.328
				c31.072,10.815,63.211,18.547,95.797,23.042c65.175,9.031,132.092,4.99,195.731-11.624
				c63.646-16.59,123.986-45.747,176.407-85.436c26.219-19.826,50.464-42.253,72.269-66.842
				c21.813-24.585,41.177-51.328,57.813-79.67c16.604-28.361,30.477-58.317,41.27-89.348c10.8-31.027,18.521-63.121,23.009-95.66
				c9.018-65.081,4.983-131.904-11.608-195.453c-16.566-63.556-45.683-123.811-85.314-176.156
				c-19.797-26.181-42.192-50.391-66.746-72.166c-24.55-21.781-51.255-41.119-79.558-57.731
				c-28.3-16.616-58.186-30.538-89.166-41.371c-30.974-10.845-63.023-18.617-95.531-23.162
				c-65.017-9.129-131.822-5.222-195.401,11.253c-63.585,16.451-123.915,45.463-176.37,85.027
				c-26.235,19.764-50.508,42.134-72.35,66.674c-21.849,24.536-41.259,51.239-57.946,79.55
				c-16.656,28.33-30.585,58.266-41.438,89.288c-10.86,31.018-18.644,63.115-23.195,95.669
				c-9.143,65.111-5.23,132.012,11.269,195.681c16.474,63.676,45.528,124.092,85.149,176.622
				c19.793,26.273,42.195,50.581,66.771,72.455C1069.082,1293.395,1095.823,1312.833,1124.174,1329.544z"/>
		</g>
		<g style="clip-path:url(#SVGID_00000078724506033973182030000002978797752122386056_);">
			
				<linearGradient id="SVGID_00000115493511723201533800000014861114793196716701_" gradientUnits="userSpaceOnUse" x1="1060.184" y1="845.4831" x2="1904.1025" y2="414.5329">
				<stop  offset="2.776000e-04" style="stop-color:#77C276"/>
				<stop  offset="0.1411" style="stop-color:#77C276;stop-opacity:0.8591"/>
				<stop  offset="1" style="stop-color:#77C276;stop-opacity:0"/>
			</linearGradient>
			<path style="fill:url(#SVGID_00000115493511723201533800000014861114793196716701_);" d="M1891.102,421.092
				c13.734,26.736,24.9,54.807,33.201,83.717c4.113,14.463,7.693,29.089,10.475,43.881c2.795,14.788,4.859,29.72,6.182,44.725
				c0.667,7.502,1.139,15.023,1.428,22.551c0.332,7.528,0.477,15.066,0.439,22.606c-0.076,15.08-0.895,30.167-2.452,45.188
				c-3.183,30.027-8.973,59.856-17.777,88.869c-17.509,58.034-46.221,112.979-84.645,160.68
				c-19.207,23.838-40.724,45.955-64.344,65.727c-23.599,19.793-49.229,37.292-76.357,52.209
				c-54.256,29.797-114.792,49.234-177.16,55.863c-62.337,6.688-126.327,0.731-186.836-17.635
				c-30.242-9.194-59.693-21.293-87.578-36.43c-27.893-15.094-54.454-32.845-78.794-53.338
				c-12.193-10.213-23.888-21.035-35.023-32.413c-5.573-5.684-11-11.514-16.278-17.476c-5.284-5.958-10.358-12.1-15.312-18.334
				c-19.781-24.965-37.122-51.866-51.639-80.184c-14.378-28.386-26.037-58.187-34.652-88.853
				c-8.572-30.681-13.888-62.241-16.161-93.961c-4.414-63.474,4.201-127.628,24.889-187.359
				c20.628-59.759,53.302-115.064,95.256-161.628c41.943-46.602,93.137-84.257,149.072-110.734
				c27.979-13.23,57.172-23.734,87.033-31.249c14.929-3.76,30.023-6.777,45.207-9.037c15.185-2.256,30.456-3.759,45.738-4.572
				c30.573-1.621,61.2-0.074,91.342,4.166c30.151,4.268,59.765,11.595,88.429,21.426c28.66,9.883,56.226,22.659,82.415,37.685
				c13.081,7.545,25.783,15.726,38.044,24.505c6.132,4.388,12.147,8.933,18.06,13.603c5.93,4.648,11.746,9.44,17.431,14.378
				c11.379,9.868,22.266,20.295,32.606,31.229c10.349,10.929,20.104,22.398,29.409,34.211
				C1861.303,368.785,1877.496,394.29,1891.102,421.092z M1888.219,422.564c-13.62-26.562-29.796-51.81-48.298-75.223
				c-18.495-23.417-39.31-44.995-62.043-64.314c-45.449-38.671-98.599-68.193-155.368-86.499
				c-56.762-18.328-117.118-25.433-176.544-20.626c-29.711,2.386-59.18,7.722-87.836,15.9
				c-28.659,8.172-56.498,19.186-83.029,32.754c-26.516,13.597-51.719,29.744-75.091,48.213
				c-23.375,18.463-44.915,39.24-64.199,61.933c-38.603,45.368-68.072,98.424-86.346,155.094
				c-18.296,56.662-25.389,116.911-20.589,176.233c2.382,29.658,7.708,59.074,15.873,87.679
				c8.157,28.608,19.152,56.398,32.696,82.883c13.531,26.491,29.582,51.698,47.978,75.077
				c18.384,23.385,39.089,44.947,61.717,64.266c45.239,38.67,98.202,68.25,154.829,86.653
				c56.62,18.424,116.877,25.661,176.262,20.992c29.689-2.316,59.15-7.582,87.811-15.692c28.665-8.103,56.522-19.052,83.083-32.558
				c26.546-13.537,51.792-29.629,75.215-48.053c23.427-18.418,45.028-39.16,64.381-61.829
				c38.739-45.32,68.372-98.378,86.807-155.105c18.457-56.72,25.706-117.085,21.029-176.576
				c-2.321-29.743-7.596-59.256-15.72-87.969C1912.718,477.079,1901.75,449.171,1888.219,422.564z"/>
		</g>
	</g>
</g>
</svg>
